<svg width="79" height="77" viewBox="0 0 79 77" fill="none" xmlns="http://www.w3.org/2000/svg">
<path d="M56 38.3523C56 29.2396 48.6127 21.8523 39.5 21.8523C30.3873 21.8523 23 29.2396 23 38.3523C23 47.465 30.3873 54.8523 39.5 54.8523C48.6127 54.8523 56 47.465 56 38.3523Z" fill="#038851" stroke="black"/>
<path d="M39.7083 15.6667C43.7583 15.6667 47.0416 12.3834 47.0416 8.33333C47.0416 4.28325 43.7583 1 39.7083 1C35.6582 1 32.3749 4.28325 32.3749 8.33333C32.3749 12.3834 35.6582 15.6667 39.7083 15.6667Z" fill="#05CC79" stroke="black"/>
<path d="M39.0219 75.8609C43.072 75.8609 46.3552 72.5776 46.3552 68.5275C46.3552 64.4774 43.072 61.1942 39.0219 61.1942C34.9718 61.1942 31.6885 64.4774 31.6885 68.5275C31.6885 72.5776 34.9718 75.8609 39.0219 75.8609Z" fill="#05CC79" stroke="black"/>
<path d="M8.33333 45.7333C12.3834 45.7333 15.6667 42.4501 15.6667 38.4C15.6667 34.3499 12.3834 31.0667 8.33333 31.0667C4.28325 31.0667 1 34.3499 1 38.4C1 42.4501 4.28325 45.7333 8.33333 45.7333Z" fill="#05CC79" stroke="black"/>
<path d="M70.6667 45.7333C74.7168 45.7333 78 42.4501 78 38.4C78 34.3499 74.7168 31.0667 70.6667 31.0667C66.6166 31.0667 63.3333 34.3499 63.3333 38.4C63.3333 42.4501 66.6166 45.7333 70.6667 45.7333Z" fill="#05CC79" stroke="black"/>
</svg>
