<svg width="33" height="75" viewBox="0 0 33 75" fill="none" xmlns="http://www.w3.org/2000/svg">
<g clip-path="url(#clip0_1_18)">
<path d="M33 37.3523C33 28.2396 25.6127 20.8523 16.5 20.8523C7.3873 20.8523 0 28.2396 0 37.3523C0 46.465 7.3873 53.8523 16.5 53.8523C25.6127 53.8523 33 46.465 33 37.3523Z" fill="#038851" stroke="black"/>
<path d="M16.7083 14.6667C20.7584 14.6667 24.0416 11.3834 24.0416 7.33333C24.0416 3.28325 20.7584 0 16.7083 0C12.6582 0 9.37494 3.28325 9.37494 7.33333C9.37494 11.3834 12.6582 14.6667 16.7083 14.6667Z" fill="#05CC79" stroke="black"/>
<path d="M16.0219 74.8609C20.072 74.8609 23.3552 71.5776 23.3552 67.5275C23.3552 63.4774 20.072 60.1942 16.0219 60.1942C11.9718 60.1942 8.68854 63.4774 8.68854 67.5275C8.68854 71.5776 11.9718 74.8609 16.0219 74.8609Z" fill="#05CC79" stroke="black"/>
</g>
<defs>
<clipPath id="clip0_1_18">
<rect width="33" height="74.8609" fill="white"/>
</clipPath>
</defs>
</svg>
