<!DOCTYPE svg PUBLIC "-//W3C//DTD SVG 1.1//EN" "http://www.w3.org/Graphics/SVG/1.1/DTD/svg11.dtd">
<!-- Uploaded to: SVG Repo, www.svgrepo.com, Transformed by: SVG Repo Mixer Tools -->
<svg height="64px" width="64px" version="1.1" id="_x34_" xmlns="http://www.w3.org/2000/svg" xmlns:xlink="http://www.w3.org/1999/xlink" viewBox="0 0 512 512" xml:space="preserve" fill="#000000">
<g id="SVGRepo_bgCarrier" stroke-width="0"/>
<g id="SVGRepo_tracerCarrier" stroke-linecap="round" stroke-linejoin="round"/>
<g id="SVGRepo_iconCarrier"> <g> <g> <path style="fill:#EAE9E9;" d="M368.989,243.95c-11.578,0-17.18,0-30.09,0c-12.918,0-17.879-11.586-17.879-11.586l11.578-1.649 h77.736V10.484c-0.627,0.194-1.246,0.389-1.858,0.641l-62.168,26.03c-7.482,3.125-12.81,9.893-14.106,17.893l-16.05,165.033 c-1.08,6.711,0.799,13.573,5.163,18.779c4.363,5.22,10.779,8.28,17.584,8.402l35.742,0.864v244.49c0,7.402,6.005,13.4,13.4,13.4 h22.293V243.95C393.506,243.95,374.893,243.95,368.989,243.95z"/> <path style="fill:#D6D7D7;" d="M410.334,506.017h17.238c7.402,0,13.407-5.998,13.407-13.4V243.95c0,0-14.502,0-30.645,0V506.017z"/> <path style="fill:#D6D7D7;" d="M430.517,13.242c-5.984-3.989-13.415-4.954-20.183-2.758v220.232h30.645v-5.292v-10.664V32.755 C440.979,24.906,437.047,17.584,430.517,13.242z"/> <path style="fill:#D8D8D8;" d="M321.02,232.364c0,0,4.961,11.586,17.879,11.586c12.911,0,18.512,0,30.09,0 c5.904,0,24.517,0,41.345,0v-13.234h-77.736L321.02,232.364z"/> <path style="fill:#C9C9C9;" d="M410.334,243.95c16.143,0,30.645,0,30.645,0v-13.234h-30.645V243.95z"/> </g> <g> <path style="fill:#D6D7D7;" d="M202.63,0c-13.248,0-23.977,10.735-23.977,23.984c0,0.007,0,1.591,0,4.414 c0,13.86,0,57.488,0,87.42c0,11.413-9.26,20.672-20.68,20.672c-11.42,0-20.672-9.259-20.672-20.672c0-36.038,0-90.178,0-90.178 c0-13.242-10.743-23.984-23.992-23.984v506.009h19.765c7.403,0,13.4-5.991,13.4-13.393V232.364 c6.337-1.685,12.32-3.816,17.893-6.343c10.873-4.918,20.204-11.232,27.988-18.152c11.693-10.405,19.938-22.041,25.475-33 c2.765-5.501,4.86-10.844,6.343-16.021c0.749-2.584,1.34-5.141,1.757-7.726c0.417-2.585,0.684-5.191,0.684-8.014 c0-17.368,0-119.124,0-119.124C226.615,10.735,215.872,0,202.63,0z"/> <path style="fill:#EAE9E9;" d="M89.322,25.64c0,0.007,0,1.598,0,4.407c0,13.616,0,55.911,0,85.771 c0,11.413-9.253,20.672-20.676,20.672c-11.417,0-20.672-9.259-20.672-20.672c0-36.009,0-91.834,0-91.834 C47.973,10.735,37.233,0,23.988,0C10.743,0,0,10.735,0,23.984c0,0.007,0,1.591,0,4.414c0,19.707,0,99.509,0,114.71 c0.007,2.513,0.212,4.846,0.551,7.15c0.648,4.306,1.746,8.547,3.269,12.953c2.671,7.654,6.653,15.755,12.215,23.934 c4.173,6.121,9.238,12.248,15.316,18.052c9.104,8.684,20.531,16.611,34.306,22.3c4.576,1.893,9.425,3.499,14.491,4.846v261.93 c0,7.402,5.998,13.393,13.4,13.393h19.762V1.656C100.061,1.656,89.322,12.399,89.322,25.64z"/> </g> <g> <path style="fill:#05CC79;" d="M113.277,315.133V512H80.245c-2.801,0-5.454-0.734-7.813-1.915l-0.075-0.072 c-2.801-1.548-5.163-3.91-6.711-6.711l-0.072-0.072c-1.181-2.362-1.919-5.019-1.919-7.82V331.651 c0-9.145,7.373-16.439,16.517-16.518H113.277z"/> <path style="fill:#038851;" d="M146.388,315.119H113.31v196.845h33.078c9.138,0,16.54-7.409,16.54-16.546V331.658 C162.928,322.529,155.526,315.119,146.388,315.119z"/> </g> <g> <path style="fill:#05CC79;" d="M407.95,313.463h-33.078c-4.565,0-8.698,1.85-11.701,4.846c-2.996,2.995-4.839,7.129-4.839,11.701 v81.883v81.876c0,4.565,1.843,8.698,4.839,11.693c3.002,2.996,7.135,4.846,11.701,4.846h33.078h2.384V313.463H407.95z"/> <path style="fill:#038851;" d="M452.73,318.309c-2.988-2.996-7.122-4.846-11.694-4.846h-30.702v196.845h30.702 c4.572,0,8.706-1.85,11.694-4.846c2.995-2.995,4.846-7.128,4.846-11.693v-81.876v-81.883 C457.576,325.437,455.725,321.304,452.73,318.309z"/> </g> <g> <path style="fill:#F1F2F1;" d="M71.489,313.463c-9.339,0-16.907,7.567-16.907,16.906c0,9.339,7.568,16.907,16.907,16.907h41.82 v-33.813H71.489z"/> <path style="fill:#F1F2F1;" d="M155.13,313.463h-41.82v33.813h41.82c9.339,0,16.899-7.568,16.899-16.907 C172.028,321.03,164.469,313.463,155.13,313.463z"/> </g> <path style="fill:#F1F2F1;" d="M465.741,328.721c0,9.331-7.568,16.899-16.907,16.899h-83.632c-9.339,0-16.907-7.568-16.907-16.899 l0,0c0-9.339,7.568-16.907,16.907-16.907h83.632C458.173,311.814,465.741,319.382,465.741,328.721L465.741,328.721z"/> </g> </g>
</svg>