<svg width="116" height="78" viewBox="0 0 116 78" fill="none" xmlns="http://www.w3.org/2000/svg">
<path d="M91 22H25V55H91V22Z" fill="#038851" stroke="black"/>
<path d="M34.3333 15.6667C38.3834 15.6667 41.6667 12.3834 41.6667 8.33334C41.6667 4.28325 38.3834 1 34.3333 1C30.2832 1 27 4.28325 27 8.33334C27 12.3834 30.2832 15.6667 34.3333 15.6667Z" fill="#05CC79" stroke="black"/>
<path d="M34.3333 76.6667C38.3834 76.6667 41.6667 73.3834 41.6667 69.3333C41.6667 65.2832 38.3834 62 34.3333 62C30.2832 62 27 65.2832 27 69.3333C27 73.3834 30.2832 76.6667 34.3333 76.6667Z" fill="#05CC79" stroke="black"/>
<path d="M82.3333 76.6667C86.3834 76.6667 89.6667 73.3834 89.6667 69.3333C89.6667 65.2832 86.3834 62 82.3333 62C78.2832 62 75 65.2832 75 69.3333C75 73.3834 78.2832 76.6667 82.3333 76.6667Z" fill="#05CC79" stroke="black"/>
<path d="M82.3333 15.6667C86.3834 15.6667 89.6667 12.3834 89.6667 8.33334C89.6667 4.28325 86.3834 1 82.3333 1C78.2832 1 75 4.28325 75 8.33334C75 12.3834 78.2832 15.6667 82.3333 15.6667Z" fill="#05CC79" stroke="black"/>
<path d="M58.3333 15.6667C62.3834 15.6667 65.6667 12.3834 65.6667 8.33334C65.6667 4.28325 62.3834 1 58.3333 1C54.2832 1 51 4.28325 51 8.33334C51 12.3834 54.2832 15.6667 58.3333 15.6667Z" fill="#05CC79" stroke="black"/>
<path d="M58.3333 76.6667C62.3834 76.6667 65.6667 73.3834 65.6667 69.3333C65.6667 65.2832 62.3834 62 58.3333 62C54.2832 62 51 65.2832 51 69.3333C51 73.3834 54.2832 76.6667 58.3333 76.6667Z" fill="#05CC79" stroke="black"/>
<path d="M107.333 45.6667C111.383 45.6667 114.667 42.3834 114.667 38.3333C114.667 34.2832 111.383 31 107.333 31C103.283 31 100 34.2832 100 38.3333C100 42.3834 103.283 45.6667 107.333 45.6667Z" fill="#05CC79" stroke="black"/>
<path d="M8.33334 45.6667C12.3834 45.6667 15.6667 42.3834 15.6667 38.3333C15.6667 34.2832 12.3834 31 8.33334 31C4.28325 31 1 34.2832 1 38.3333C1 42.3834 4.28325 45.6667 8.33334 45.6667Z" fill="#05CC79" stroke="black"/>
</svg>
