<svg width="33" height="75" viewBox="0 0 33 75" fill="none" xmlns="http://www.w3.org/2000/svg">
<g clip-path="url(#clip0_1_3)">
<path d="M33 20.8524H0V53.8524H33V20.8524Z" fill="#038851" stroke="black"/>
<path d="M16.7083 14.6667C20.7584 14.6667 24.0416 11.3834 24.0416 7.33334C24.0416 3.28325 20.7584 0 16.7083 0C12.6582 0 9.37494 3.28325 9.37494 7.33334C9.37494 11.3834 12.6582 14.6667 16.7083 14.6667Z" fill="#05CC79" stroke="black"/>
<path d="M16.0219 74.8609C20.072 74.8609 23.3552 71.5776 23.3552 67.5275C23.3552 63.4775 20.072 60.1942 16.0219 60.1942C11.9718 60.1942 8.68854 63.4775 8.68854 67.5275C8.68854 71.5776 11.9718 74.8609 16.0219 74.8609Z" fill="#05CC79" stroke="black"/>
</g>
<defs>
<clipPath id="clip0_1_3">
<rect width="33" height="74.8609" fill="white"/>
</clipPath>
</defs>
</svg>
