<svg width="116" height="78" viewBox="0 0 116 78" fill="none" xmlns="http://www.w3.org/2000/svg">
<path d="M74.5 22H41.5C32.3873 22 25 29.3873 25 38.5C25 47.6127 32.3873 55 41.5 55H74.5C83.6127 55 91 47.6127 91 38.5C91 29.3873 83.6127 22 74.5 22Z" fill="#038851" stroke="black"/>
<path d="M41.7083 15.6667C45.7584 15.6667 49.0416 12.3834 49.0416 8.33334C49.0416 4.28325 45.7584 1 41.7083 1C37.6582 1 34.3749 4.28325 34.3749 8.33334C34.3749 12.3834 37.6582 15.6667 41.7083 15.6667Z" fill="#05CC79" stroke="black"/>
<path d="M41.0219 75.8609C45.072 75.8609 48.3552 72.5777 48.3552 68.5276C48.3552 64.4775 45.072 61.1942 41.0219 61.1942C36.9718 61.1942 33.6885 64.4775 33.6885 68.5276C33.6885 72.5777 36.9718 75.8609 41.0219 75.8609Z" fill="#05CC79" stroke="black"/>
<path d="M75.3333 76.6667C79.3834 76.6667 82.6667 73.3834 82.6667 69.3333C82.6667 65.2832 79.3834 62 75.3333 62C71.2832 62 68 65.2832 68 69.3333C68 73.3834 71.2832 76.6667 75.3333 76.6667Z" fill="#05CC79" stroke="black"/>
<path d="M75.3333 15.6667C79.3834 15.6667 82.6667 12.3834 82.6667 8.33334C82.6667 4.28325 79.3834 1 75.3333 1C71.2832 1 68 4.28325 68 8.33334C68 12.3834 71.2832 15.6667 75.3333 15.6667Z" fill="#05CC79" stroke="black"/>
<path d="M107.333 45.6667C111.383 45.6667 114.667 42.3834 114.667 38.3333C114.667 34.2832 111.383 31 107.333 31C103.283 31 100 34.2832 100 38.3333C100 42.3834 103.283 45.6667 107.333 45.6667Z" fill="#05CC79" stroke="black"/>
<path d="M8.33334 45.6667C12.3834 45.6667 15.6667 42.3834 15.6667 38.3333C15.6667 34.2832 12.3834 31 8.33334 31C4.28325 31 1 34.2832 1 38.3333C1 42.3834 4.28325 45.6667 8.33334 45.6667Z" fill="#05CC79" stroke="black"/>
</svg>
