<svg width="68" height="78" viewBox="0 0 68 78" fill="none" xmlns="http://www.w3.org/2000/svg">
<path d="M67 22H1V55H67V22Z" fill="#038851" stroke="black"/>
<path d="M17.7083 15.6667C21.7584 15.6667 25.0416 12.3834 25.0416 8.33333C25.0416 4.28325 21.7584 0.999999 17.7083 0.999999C13.6582 0.999999 10.3749 4.28325 10.3749 8.33333C10.3749 12.3834 13.6582 15.6667 17.7083 15.6667Z" fill="#05CC79" stroke="black"/>
<path d="M17.0219 75.8609C21.072 75.8609 24.3552 72.5777 24.3552 68.5276C24.3552 64.4775 21.072 61.1942 17.0219 61.1942C12.9718 61.1942 9.68854 64.4775 9.68854 68.5276C9.68854 72.5777 12.9718 75.8609 17.0219 75.8609Z" fill="#05CC79" stroke="black"/>
<path d="M51.3333 76.6667C55.3834 76.6667 58.6667 73.3834 58.6667 69.3333C58.6667 65.2832 55.3834 62 51.3333 62C47.2832 62 44 65.2832 44 69.3333C44 73.3834 47.2832 76.6667 51.3333 76.6667Z" fill="#05CC79" stroke="black"/>
<path d="M51.3333 15.6667C55.3834 15.6667 58.6667 12.3834 58.6667 8.33334C58.6667 4.28325 55.3834 1 51.3333 1C47.2832 1 44 4.28325 44 8.33334C44 12.3834 47.2832 15.6667 51.3333 15.6667Z" fill="#05CC79" stroke="black"/>
</svg>
