<svg width="72" height="76" viewBox="0 0 72 76" fill="none" xmlns="http://www.w3.org/2000/svg">
<path d="M53 37.3523C53 28.2396 45.6127 20.8523 36.5 20.8523C27.3873 20.8523 20 28.2396 20 37.3523C20 46.465 27.3873 53.8523 36.5 53.8523C45.6127 53.8523 53 46.465 53 37.3523Z" fill="#038851" stroke="black"/>
<path d="M36.1333 74.8C40.1834 74.8 43.4667 71.5168 43.4667 67.4667C43.4667 63.4166 40.1834 60.1333 36.1333 60.1333C32.0832 60.1333 28.8 63.4166 28.8 67.4667C28.8 71.5168 32.0832 74.8 36.1333 74.8Z" fill="#05CC79" stroke="black"/>
<path d="M8.26665 27.8667C12.3167 27.8667 15.6 24.5834 15.6 20.5333C15.6 16.4832 12.3167 13.2 8.26665 13.2C4.21656 13.2 0.933319 16.4832 0.933319 20.5333C0.933319 24.5834 4.21656 27.8667 8.26665 27.8667Z" fill="#05CC79" stroke="black"/>
<path d="M63.2667 27.8667C67.3168 27.8667 70.6 24.5834 70.6 20.5333C70.6 16.4832 67.3168 13.2 63.2667 13.2C59.2166 13.2 55.9333 16.4832 55.9333 20.5333C55.9333 24.5834 59.2166 27.8667 63.2667 27.8667Z" fill="#05CC79" stroke="black"/>
</svg>
