<svg width="79" height="77" viewBox="0 0 79 77" fill="none" xmlns="http://www.w3.org/2000/svg">
<path d="M56 21.8354H23V54.8086H56V21.8354Z" fill="#038851" stroke="black"/>
<path d="M39.7083 15.6547C43.7583 15.6547 47.0416 12.3742 47.0416 8.32737C47.0416 4.28058 43.7583 1 39.7083 1C35.6582 1 32.3749 4.28058 32.3749 8.32737C32.3749 12.3742 35.6582 15.6547 39.7083 15.6547Z" fill="#05CC79" stroke="black"/>
<path d="M8.33333 45.7333C12.3834 45.7333 15.6667 42.4501 15.6667 38.4C15.6667 34.3499 12.3834 31.0667 8.33333 31.0667C4.28325 31.0667 1 34.3499 1 38.4C1 42.4501 4.28325 45.7333 8.33333 45.7333Z" fill="#05CC79" stroke="black"/>
<path d="M70.6667 45.7333C74.7168 45.7333 78 42.4501 78 38.4C78 34.3499 74.7168 31.0667 70.6667 31.0667C66.6166 31.0667 63.3333 34.3499 63.3333 38.4C63.3333 42.4501 66.6166 45.7333 70.6667 45.7333Z" fill="#05CC79" stroke="black"/>
<path d="M39.0219 75.8C43.072 75.8 46.3552 72.5194 46.3552 68.4726C46.3552 64.4258 43.072 61.1453 39.0219 61.1453C34.9718 61.1453 31.6885 64.4258 31.6885 68.4726C31.6885 72.5194 34.9718 75.8 39.0219 75.8Z" fill="#05CC79" stroke="black"/>
</svg>
