<svg width="56" height="77" viewBox="0 0 56 77" fill="none" xmlns="http://www.w3.org/2000/svg">
<path d="M55 21.8354H22V54.8086H55V21.8354Z" fill="#038851" stroke="black"/>
<path d="M38.7083 15.6547C42.7584 15.6547 46.0416 12.3742 46.0416 8.32737C46.0416 4.28058 42.7584 1 38.7083 1C34.6582 1 31.3749 4.28058 31.3749 8.32737C31.3749 12.3742 34.6582 15.6547 38.7083 15.6547Z" fill="#05CC79" stroke="black"/>
<path d="M8.06667 45.7333C12.1168 45.7333 15.4 42.4501 15.4 38.4C15.4 34.3499 12.1168 31.0667 8.06667 31.0667C4.01658 31.0667 0.733337 34.3499 0.733337 38.4C0.733337 42.4501 4.01658 45.7333 8.06667 45.7333Z" fill="#05CC79" stroke="black"/>
<path d="M38.0219 75.8C42.072 75.8 45.3552 72.5194 45.3552 68.4726C45.3552 64.4258 42.072 61.1453 38.0219 61.1453C33.9718 61.1453 30.6885 64.4258 30.6885 68.4726C30.6885 72.5194 33.9718 75.8 38.0219 75.8Z" fill="#05CC79" stroke="black"/>
</svg>
